<?xml version="1.0" encoding="UTF-8"?>
<svg id="Layer_1" data-name="Layer 1" xmlns="http://www.w3.org/2000/svg" viewBox="0 0 392.42 488.48">
  <defs>
    <style>
      .cls-1 {
        fill: #655c5f;
      }

      .cls-1, .cls-2, .cls-3, .cls-4 {
        stroke-width: 0px;
      }

      .cls-2 {
        fill: #cbf2f7;
      }

      .cls-3 {
        fill: #fae649;
      }

      .cls-4 {
        fill: #fff;
      }
    </style>
  </defs>
  <circle class="cls-2" cx="196.21" cy="219.23" r="196.21"/>
  <g>
    <path class="cls-3" d="M243.05,131.57c-.75.76-1.19,1.8-1.69,2.78-2.08,4.13-4.05,8.31-6,12.51-2.29,4.92-5.23,9.52-8.02,14.18-3.9,6.51-8.01,12.89-12.14,19.26-3.78,4.29-6.54,9.18-8.88,14.39-6.45,14.36-12.36,28.92-16.97,43.99-2.24,7.33-4.21,14.72-5.67,22.25-.22,1.14-.3,2.36-1.23,3.29,2.06-15.99,6.9-31.25,12.37-46.34-.6-.24-.5.23-.63.4-.14.18-.23.42-.32.64-4.9,11.9-9.23,23.99-12.2,36.52-2.71,11.41-4.78,22.95-6.61,34.53-1.21,7.64-2.25,15.31-3.14,22.99-.69,5.94-1.25,11.9-1.65,17.87-.65,9.56-1.16,19.12-1.53,28.7-.44,11.35-.36,22.69-.16,34.03.11,6.54.42,13.09.89,19.62.58,8.19,1.15,16.39,2.21,24.55.84,6.49,1.75,12.96,3.44,19.3.25.92.58,1.83.81,2.76.16.62.3,1.38-.5,1.63-.73.22-1.17-.37-1.44-.98-.36-.8-.69-1.62-.96-2.45-1.77-5.4-2.8-10.97-3.62-16.58-1.21-8.21-1.94-16.47-2.56-24.75-1.28-17.16-1.07-34.33-.74-51.5.16-8.38.7-16.76,1.35-25.12.98-12.65,2.25-25.27,4.13-37.83,1.05-7.02,2.06-14.05,3.38-21.03.17-.87.33-1.76-.6-2.51-.92,3.41-1.35,6.87-2.02,10.28-1.87,9.57-2.65,19.28-3.5,28.98-.65,7.39-1.21,14.79-1.87,22.17-.75,8.35-1.33,16.71-1.99,25.06-.58,7.48-1.29,14.94-1.81,22.42-.4,5.75.25,11.48.8,17.21.39,4.05.72,8.11,1.1,12.16.58,6.03,1.24,12.06,1.76,18.1.4,4.69.81,9.38,1.45,14.04.03.24.06.49,0,.72-1.21,4.34-.55,8.72-.4,13.1.02.71-.06,1.43-.09,2.14-.08-.23-.21-.45-.24-.68-1.95-13.67-3.26-27.42-4.24-41.19-.76-10.59-1.11-21.21-1.36-31.82-.3-12.62.04-25.23.64-37.84.43-8.93,1.08-17.84,1.95-26.74,1.07-10.96,2.51-21.87,4.34-32.73,2.54-15.04,5.82-29.9,10.18-44.52,4.45-14.95,9.9-29.51,17.18-43.33,8.01-15.2,16.75-29.97,25.73-44.61,17.59-28.67,36.21-56.67,55.45-84.26.39-.57.61-1.33,1.39-1.56.42.48-.07.95-.03,1.43-.18.14-.4.25-.52.43-.13.17-.27.56-.22.6.41.29.5-.17.64-.37.11-.16.07-.43.1-.66.84.01,1.12-.55,1.3-1.26-.42-.27-.91.22-1.28-.15.03-.96.77-1.56,1.26-2.25,6.89-9.69,13.78-19.38,20.72-29.03,2.33-3.23,4.56-6.54,7.17-9.56.78.12,1.13-.52,1.54-.96,4.04-4.31,8.06-8.63,12.07-12.96.29-.32.79-.58.51-1.53-1.18,1.13-2.19,2.19-3.29,3.15-1.73,1.5-3.02,3.48-5.08,4.63.95-1.71,2.08-3.3,3.35-4.78.3-.03.52-.16.59-.48l-.04.04c.7-.35,1.25-.81,1.49-1.73-.83-.03-1,.63-1.43.88-.94-2.56-2.65-3.61-5.59-3.31-2.31.23-4.55.79-6.73,1.63-4.89,1.87-9.33,4.55-13.62,7.5-9.26,6.36-17.6,13.81-25.55,21.71-20.03,19.91-37.41,41.99-53.23,65.33-.74,1.1-1.11,2.28-1.35,3.54-1.86,9.53-3.73,19.06-5.56,28.59-.23,1.2-.69,2.4-.55,3.74.92-.39,1.26-1.18,1.59-1.86,1.05-2.17,3.05-2.68,5.11-3.08,1.12-.21,2.02.35,2.67,1.25.62.86.25,1.63-.22,2.43-.39.67-1.07,1.2-1.06,2.08,1.97.69,2.38,1.37,1.94,3.29-.48,2.1-.83,4.23.11,6.26.97,2.09.24,3.76-.91,5.48-3.02,4.51-5.99,9.05-8.97,13.58-9.44,14.32-18.88,28.64-28.33,42.96-4.7,7.13-9.41,14.25-14.12,21.37-1.36,2.06-3.16,3.4-5.76,3.1-1.4-.16-1.84.52-2.01,1.71-1.23,8.53-2.34,17.08-3.01,25.68-.47,5.97-.81,11.95-1.09,17.93-.62,13.1-.5,26.21-.14,39.3.29,10.69.92,21.38,1.8,32.05.76,9.23,1.64,18.44,2.65,27.65.93,8.49,1.97,16.97,3.14,25.42,1.78,12.88,3.82,25.73,6.22,38.52.84,4.46,1.46,8.97,2.82,13.32.82,2.04.32,4.27.95,6.33.74,2.46.19,5.04.96,7.89-2.78-2.12-3.53-5.29-5.73-7.54-1.11,1.51-.27,3.07-.74,4.77-1.07-1.99-1.57-4.01-2.87-5.9-.46,1.23.29,2.12.25,3.06-.02.37.15.85-.41.95-.51.09-.65-.35-.84-.69-1.76-3.32-2.82-6.91-4-10.45-.27-.81-.39-1.7-1.37-2.66-.39,2.95.99,5.29,1.23,7.77q-1.97.3-2.3-1.3c-1.75-8.52-3.01-17.12-3.9-25.77-.85-8.25-1.86-16.48-2.69-24.74-.63-6.35-.98-12.73-1.65-19.08-.42-3.98-.1-8.01-.83-11.94-.53-2.82-1.05-5.6-1.14-8.48-.09-2.79-.52-5.56-.72-8.34-1.13-15.79-1.55-31.6-.93-47.42.32-8.21.93-16.41,1.65-24.6.64-7.23,1.3-14.46,2.17-21.67,1.26-10.45,2.66-20.89,4.74-31.21.39-1.92.38-2.07-1.41-2.4-2.43-.45-4.45-1.71-6.51-2.92-1.1-.65-2.14-1.42-3.28-1.98-5.22-2.55-9.3-6.3-12.31-11.28-1.03-1.69-2.3-3.24-3.51-4.82-1.46-1.92-2.44-3.99-2.97-6.39-1.48-6.69-3.12-13.35-4.76-20-.34-1.36-.4-2.71-.16-4.03.31-1.69.32-3.32-.17-4.97-.46-1.54-.63-3.12-.49-4.73.18-2.01-.66-3.93-.49-5.95.4-4.61.74-9.23,1.14-13.84.2-2.3.67-4.6.67-6.9,0-3.65,1.51-6.79,2.91-10-.05.39-.05.8-.15,1.18-1.42,5.34-2.23,10.8-2.57,16.29-.66,10.83.05,21.56,3.24,32,6.36,20.83,18.83,36.57,38.67,46.13,1.75.84,1.77.86,3.1-.78,3.62-4.47,7.22-8.96,10.84-13.44,1-1.24,2.01-2.47,2.8-3.88,5.16-9.19,10.43-18.33,15.5-27.57,2.89-5.27,6.06-10.31,9.74-15.07,4.5-5.82,8.82-11.77,13.22-17.65.83-1.1,1.55-2.24,1.62-3.66.05-1.1-.19-2.13-1.3-2.61-1.09-.46-1.92-.04-2.67.89-1.81,2.24-3.67,4.43-5.57,6.59-9.12,10.39-18.27,20.76-27.4,31.14-3.02,3.44-6.03,6.88-9.05,10.33,1.46-2.58,3.09-5.03,4.7-7.49,1.63-2.47,3.26-4.93,4.86-7.42,1.56-2.43,3.31-4.76,4.73-7.38-2.05-.76-3.92-.59-5.72-.92-2.68-.48-2.69-.45-3.74,1.96-3.59,8.2-6.67,16.59-9.27,25.15-.28.91-.49,1.83-1.15,2.6-1.51,1.75-3.05,3.49-4.28,5.47-.25.41-.6.81-1.1.21.56-.62.69-1.42.95-2.17,1.42-3.98,2.81-7.98,4.29-11.94,2.68-7.18,5.51-14.3,8.56-21.33.48-1.1.41-1.68-.71-2.28-1.69-.9-3.22-2.1-4.92-2.97-5.32-2.72-9.7-6.66-14.05-10.64-.29-.26-.58-.56-.48-1.02,1.63.51,2.83,1.73,4.23,2.62,6.18,3.93,12.63,7.21,20.01,8.17,8.63,1.12,15.76-1.52,21-8.63,3.05-4.13,4.61-8.91,5.68-13.85,1.22-5.63,1.26-11.41,1.92-17.11.54-4.67.69-9.42,1.59-14.02,2.41-12.36,4.87-24.72,7.85-36.97.42-1.7.84-3.41,1.17-5.13.2-1.04.21-2.19-.95-2.7-1.1-.48-2.03.15-2.79.9-.93.92-1.42,2.1-1.71,3.37-1.27,5.52-2.64,11.01-3.79,16.56-1.61,7.82-3.38,15.59-5.92,23.16-.21.63-.11,1.48-.91,1.85,1.21-6.42,2.39-12.85,3.65-19.27,2.17-11.02,4.39-22.04,6.59-33.06.44-2.19.98-4.36,1.32-6.56.2-1.3.9-1.99,2.02-2.4.52-.19,1.06-.36,1.6-.48,3.15-.73,4.54.62,3.87,3.81-.19.9-.27,1.7.31,2.5.61.84.65,1.86.36,2.77-.73,2.32-.45,4.61.24,6.82.45,1.46.37,2.8.07,4.22-1.17,5.61-2.31,11.22-3.45,16.84-.04.19.05.41.12.92.64-.91,1.16-1.6,1.62-2.32,11.81-18.53,24.56-36.41,37.71-54.02,4.16-5.58,8.71-10.83,13.86-15.54,1.48-1.35,3-2.64,4.81-3.54.67-.33,1.38-.64,2.03-.17.73.53.28,1.3.23,2-.06.86-.74,1.61-.5,2.51.77.39,1.07-.24,1.4-.6,1.63-1.75,3.21-3.56,4.84-5.31,2.51-2.69,5.21-5.18,8.25-7.28,5.19-3.58,10.37-7.19,15.6-10.71.96-.65,1.89-1.77,3.39-1.07.44.2.81-.4,1.19-.69,1.28-.96,2.53-1.96,3.99-2.64,1.1-.51,1.61-.23,1.84.96.22,1.14-.23,2.21-.47,3.29-.14.62-.49,1.2-.57,1.82-.1.83.22,1.33,1.24,1.23,1.99-.19,2.31.09,3.08,2.32.93-.36,1.45-1.19,2.1-1.83,2.22-2.18,4.18-4.63,6.76-6.43,1.36-.95,2.73-1.98,4.56-1.42.7.22,1-.34,1.41-.67.67-.54,1.22-1.33,2.44-1.01.07,2.3-2.04,3.47-2.74,5.45.56-.37,1.14-.72,1.69-1.1.56-.39,1.11-.44,1.8-.27.95.24,1.19.67.79,1.53-.73,1.6-1.66,3.09-2.67,4.54-.34.49-.84.91-.87,1.55.6.26.85-.13,1.15-.34.79-.54,1.53-1.16,2.35-1.65.87-.52,1.92-1.31,2.82-.45.82.78.07,1.85-.32,2.66-1.94,3.97-4.58,7.49-7.32,10.93-2.84,3.56-5.79,7.04-9.06,10.21-1,.97-1.58,2.19-2.42,3.25-4.49,5.65-9.79,10.53-14.98,15.49-5.09,4.87-9.8,10.06-14.3,15.46-4.3,5.15-8.67,10.24-13.28,15.12-1.31,1.39-2.61,2.79-3.76,4.71l-31.85,44.4ZM320.03,19.19c-.11.09-.53.07-.12.35.03-.13.06-.25.09-.38.36.04.5-.14.48-.48.34.03.5-.14.49-.47.34.02.49-.15.48-.48.35.04.62-.12.85-.34,3.25-3.15,6.05-6.72,9.13-10.02.51-.55.64-1.11.17-1.8-.85.58-1.05,1.59-1.78,2.23-3.11,2.74-5.21,6.37-8.12,9.3-.15.15-.16.43-.24.65-.31.01-.47.17-.48.48-.3.02-.45.19-.47.48-.29.03-.45.19-.48.48ZM274.39,31.12c-.23.08-.36.25-.35.49,0,.08.15.14.23.22.08-.2.16-.39.24-.59.22-.08.46-.26.24-.44-.24-.19-.29.14-.36.32ZM284.05,70.99c5.05-4.69,17.22-19.34,17.79-21.41-.14.07-.32.1-.41.21-5.5,6.41-11,12.82-16.49,19.24-.46.54-1.03,1.03-.99,1.84-.94.3-1.45.93-1.75,2.11,1.05-.54,1.59-1.15,1.84-2ZM148.97,287.01c-.5,3.62-.97,7.25-1.5,10.87-.59,4.05-.82,8.1-.11,12.15.15.87.12,1.86,1.53,2.83-1.27-8.96-.42-17.4.08-25.86ZM143.68,384.4c.33-3.43.36-6.92.61-10.39.42-5.86.09-11.78.05-17.67,0-.36.04-.83-.77-.78-.27,9.59-.04,19.19.11,28.84ZM157.51,432.79c.61,8.24,1.79,16.4,3.51,24.49-1.01-8.18-2.1-16.36-3.51-24.49ZM280.18,75.63c1.05-.81,1.67-1.24,1.78-2.46-.86.66-1.41,1.14-1.78,2.46ZM143.64,354.16l.13.11.02-.18-.15.07Z"/>
    <path class="cls-1" d="M167.91,468.37c-1.37-4.35-1.99-8.86-2.82-13.32-2.4-12.78-4.44-25.63-6.22-38.52-1.17-8.46-2.21-16.93-3.14-25.42-1.01-9.2-1.89-18.42-2.65-27.65-.88-10.67-1.51-21.35-1.8-32.05-.36-13.1-.48-26.2.14-39.3.28-5.98.63-11.96,1.09-17.93.67-8.6,1.78-17.15,3.01-25.68.17-1.19.62-1.88,2.01-1.71,2.6.3,4.4-1.04,5.76-3.1,4.71-7.12,9.42-14.24,14.12-21.37,9.45-14.32,18.88-28.64,28.33-42.96,2.99-4.53,5.95-9.07,8.97-13.58,1.15-1.71,1.87-3.39.91-5.48-.94-2.03-.59-4.16-.11-6.26.44-1.91.03-2.6-1.94-3.29-.01-.87.67-1.41,1.06-2.08.47-.8.84-1.57.22-2.43-.65-.9-1.54-1.47-2.67-1.25-2.06.39-4.06.9-5.11,3.08-.33.68-.67,1.47-1.59,1.86-.14-1.34.32-2.53.55-3.74,1.83-9.54,3.7-19.06,5.56-28.59.25-1.26.61-2.44,1.35-3.54,15.82-23.34,33.19-45.42,53.23-65.33,7.95-7.9,16.3-15.34,25.55-21.71,4.29-2.95,8.73-5.63,13.62-7.5,2.18-.84,4.42-1.4,6.73-1.63,2.94-.29,4.65.76,5.59,3.31-.08.28-.3.55-.06.85,0,0,.04-.04.04-.04-.41-.11-.46.23-.59.48-1.28,1.48-2.41,3.07-3.35,4.78-2.17,2.37-3.86,5.1-5.75,7.67-2.61,3.03-4.84,6.33-7.17,9.56-6.94,9.65-13.84,19.34-20.72,29.03-.49.69-1.23,1.29-1.26,2.25,0,0,.01-.01.01-.01-.78.23-.99,1-1.39,1.56-19.24,27.59-37.86,55.59-55.45,84.26-8.98,14.64-17.72,29.41-25.73,44.61-7.28,13.82-12.73,28.39-17.18,43.33-4.36,14.62-7.64,29.48-10.18,44.52-1.83,10.86-3.27,21.77-4.34,32.73-.87,8.9-1.52,17.81-1.95,26.74-.6,12.61-.94,25.22-.64,37.84.25,10.62.6,21.23,1.36,31.82.99,13.77,2.3,27.51,4.24,41.19.03.23.16.45.24.68.05,1.1.1,2.2.15,3.3Z"/>
    <path class="cls-1" d="M198.49,125.09c.8-.36.7-1.21.91-1.85,2.53-7.58,4.3-15.35,5.92-23.16,1.14-5.54,2.52-11.04,3.79-16.56.29-1.27.78-2.45,1.71-3.37.76-.75,1.69-1.38,2.79-.9,1.16.51,1.16,1.66.95,2.7-.33,1.72-.75,3.43-1.17,5.13-2.98,12.25-5.43,24.61-7.85,36.97-.9,4.6-1.05,9.35-1.59,14.02-.65,5.7-.69,11.48-1.92,17.11-1.07,4.95-2.63,9.72-5.68,13.85-5.24,7.11-12.37,9.76-21,8.63-7.38-.96-13.83-4.24-20.01-8.17-1.4-.89-2.6-2.11-4.23-2.62,0,0,.02.02.02.02-.11-.57-.54-.79-1.03-.93l.05.02c-.39-.55-.82-1.04-1.6-.94-3.01-2.8-6.01-5.6-9.23-8.59-.1.65-.16.94-.19,1.24-.89,8.71-.44,17.38,1.06,25.98,1.95,11.15,5.96,21.48,12.85,30.57,1.34,1.77,2.63,3.61,4.44,4.99.49.6.84.2,1.1-.21,1.23-1.98,2.77-3.71,4.28-5.47.66-.77.87-1.69,1.15-2.6,2.6-8.56,5.69-16.95,9.27-25.15,1.05-2.41,1.07-2.44,3.74-1.96,1.8.33,3.68.15,5.72.92-1.42,2.62-3.17,4.95-4.73,7.38-1.6,2.49-3.23,4.95-4.86,7.42-1.62,2.46-3.25,4.9-4.7,7.49,3.02-3.44,6.03-6.89,9.05-10.33,9.13-10.38,18.27-20.75,27.4-31.14,1.9-2.16,3.76-4.35,5.57-6.59.75-.93,1.58-1.36,2.67-.89,1.11.47,1.35,1.51,1.3,2.61-.06,1.42-.79,2.56-1.62,3.66-4.41,5.88-8.73,11.83-13.22,17.65-3.68,4.76-6.85,9.8-9.74,15.07-5.08,9.24-10.34,18.38-15.5,27.57-.79,1.41-1.8,2.64-2.8,3.88-3.61,4.48-7.22,8.96-10.84,13.44-1.33,1.64-1.35,1.63-3.1.78-19.84-9.56-32.31-25.29-38.67-46.13-3.19-10.44-3.9-21.17-3.24-32,.34-5.5,1.15-10.95,2.57-16.29.1-.38.1-.79.15-1.18,1.02-3.08,1.97-6.18,3.09-9.22.41-1.1.36-1.88-.34-2.83-1.91-2.62-3.72-5.31-5.57-7.97-.44-1.11-1.03-2.12-1.93-2.93,0,0,.02.03.02.03-1.19-2.62-2.93-4.91-4.44-7.33-4.23-6.75-8.23-13.62-11.9-20.68-.58-1.72-1.16-3.45-1.73-5.17-1.14-3.41-.76-6.71.82-9.9,2.18-2.68,5.04-4.29,8.25-5.46,4.19-1.53,8.41-2.94,12.73-4.06,7.03-1.81,14.15-3.19,21.45-3.04,8.92.18,16.58,2.96,21.48,11.03,1.79,4.25,2.53,8.67,2.23,13.27-.38,5.8-1.91,11.27-4.53,16.46-2.09,4.13-4.4,8.12-6.63,12.17-2.52,4.6-5.15,9.16-6.87,14.15-.49,1.18-.93,2.37-1.47,3.52-.47,1-.26,1.73.5,2.55,5.55,5.97,11.39,11.63,18.08,16.33,3.93,2.76,8.05,5.17,12.67,6.63,2.25.71,4.53.93,6.85.7,3.22-.32,6.15-2.93,6.98-6.17-.6.3-1.16.58-1.72.86l-.47-.61c1.08-2.12,2-4.33,3.26-6.33,3.83-6.1,5.07-13.09,7-19.84,1.18-2.63,1.63-5.47,2.27-8.25ZM113.69,98.33v-.02c-.28,1,.47,1.64.91,2.34,3.23,5.13,6.49,10.23,9.77,15.33,1.42,2.21,2.89,4.38,4.47,6.77.72-1.2,1.33-2.21,1.94-3.23,4-5.97,8.24-11.77,12.6-17.49,2.49-3.26,4.56-6.75,5.74-10.7.59-1.97,1.27-3.95.67-6.06-.36-3.09-1.29-4.15-4.54-5.01-3.3-.87-6.66-.81-10-.42-8.54,1-16.68,3.51-24.63,6.71-.59.24-1.18.5-1.73.81-.88.49-1.02,1.17-.37,1.97.9,2.5,2.4,4.69,3.58,7.04.48.7.51,1.76,1.59,1.97Z"/>
    <path class="cls-3" d="M160.34,79.64c-4.9-8.07-12.55-10.85-21.48-11.03-7.3-.14-14.41,1.23-21.45,3.04-4.32,1.11-8.54,2.53-12.73,4.06-3.21,1.17-6.07,2.78-8.25,5.46-.66-1.41-.35-2.99-.75-4.46-.09-.33.09-.81.29-1.13,1.38-2.23,2.71-4.48,5.25-5.69,8.33-3.98,17.15-6.42,26.14-8.25,3.81-.78,7.73-1.04,11.62-1.44.93-.1,1.9.12,2.84.27,2.75.45,5.5.93,8.24,1.41,1.38.24,2.56.84,3.51,1.89,1.56,1.71,3.11,3.42,4.71,5.1,1.34,1.41,2.16,2.92,1.64,4.96-.24.94-.05,1.9.32,2.81.39.98.62,1.98.1,3Z"/>
    <path class="cls-3" d="M186.42,160.11c.56-.28,1.12-.56,1.72-.86-.83,3.24-3.77,5.84-6.98,6.17-2.32.23-4.61.02-6.85-.7-4.62-1.47-8.74-3.87-12.67-6.63-6.69-4.7-12.53-10.36-18.08-16.33-.76-.81-.96-1.54-.5-2.55.53-1.15.98-2.35,1.47-3.52,1.65,1.51,3.09,3.21,4.57,4.89,3.08,3.48,6.84,6.24,10.09,9.53,4.51,4.55,10.13,7.43,15.46,10.77,1.8,1.13,3.89.65,5.81,1.16.8.21,1.01-.63,1.28-1.18,1.72-3.42,3.4-6.86,5.14-10.27,2.97-5.82,5.96-11.63,9.32-17.24-1.94,6.75-3.18,13.74-7,19.84-1.26,2-2.18,4.22-3.26,6.33-.13.17-.28.34-.39.53-.14.24-.42.54-.1.76.12.08.49-.18.72-.32.11-.07.16-.24.24-.36Z"/>
    <path class="cls-3" d="M180.49,275.76c-3.51,19.36-6.37,38.84-8.8,58.39,1.78-19.63,4.68-39.09,8.8-58.39Z"/>
    <path class="cls-3" d="M97.35,96.23c3.68,7.06,7.68,13.94,11.9,20.68,1.52,2.42,3.25,4.71,4.44,7.33-1.21-.31-1.58-1.48-2.25-2.29-4.75-5.78-8.65-12.12-12.22-18.67-1.22-2.23-1.87-4.53-1.87-7.04Z"/>
    <path class="cls-3" d="M167.58,488.47c-.12-1.51-.36-2.92,0-4.63,2.05.73,2.76,3.6,5.6,2.95-.98,1.21-1.48,2.37-2.98,1.07-.84-.73-1.49.65-2.63.61Z"/>
    <path class="cls-3" d="M163.57,482.33c1.63,1.77,2.51,3.4,3.32,5.06-.51.44-1.1.46-1.39.13-1.16-1.34-1.4-3.05-1.93-5.19Z"/>
    <path class="cls-3" d="M180.75,274.41c.2-2.31.45-4.61,1.38-6.77.02,2.35-.65,4.56-1.38,6.77Z"/>
    <path class="cls-3" d="M113.67,124.21c.9.81,1.49,1.82,1.93,2.93-.92-.79-1.7-1.68-1.93-2.93Z"/>
    <path class="cls-4" d="M157.48,219.23c-1.8-1.37-3.09-3.21-4.44-4.99-6.89-9.09-10.9-19.41-12.85-30.57-1.5-8.6-1.95-17.27-1.06-25.98.03-.29.09-.58.19-1.24,3.21,2.99,6.22,5.79,9.23,8.59.48.41.81,1.06,1.6.94,0,0-.05-.02-.05-.02-.01.7.33,1.02,1.03.93,0,0-.02-.02-.02-.02-.1.46.2.76.48,1.02,4.35,3.99,8.73,7.93,14.05,10.64,1.7.87,3.23,2.07,4.92,2.97,1.12.59,1.19,1.17.71,2.28-3.06,7.03-5.88,14.15-8.56,21.33-1.48,3.96-2.87,7.96-4.29,11.94-.27.75-.4,1.55-.95,2.17Z"/>
    <path class="cls-4" d="M283.95,70.88c-.04-.81.53-1.3.99-1.84,5.49-6.42,10.99-12.83,16.49-19.24.09-.11.27-.14.42-.21-.58,2.08-12.75,16.72-17.79,21.41l-.1-.12Z"/>
    <path class="cls-4" d="M148.97,287.01c-.5,8.46-1.35,16.9-.08,25.86-1.41-.97-1.38-1.97-1.53-2.83-.71-4.05-.47-8.1.11-12.15.52-3.62,1-7.25,1.5-10.87Z"/>
    <path class="cls-4" d="M307.92,34.95c1.89-2.58,3.58-5.31,5.75-7.67,2.05-1.14,3.35-3.12,5.07-4.62,1.1-.96,2.12-2.02,3.29-3.15.28.95-.21,1.21-.51,1.53-4.01,4.33-8.03,8.65-12.07,12.96-.42.44-.76,1.08-1.54.96Z"/>
    <path class="cls-4" d="M143.68,384.4c-.15-9.64-.37-19.25-.11-28.84.81-.05.77.42.77.78.03,5.89.37,11.81-.05,17.67-.25,3.48-.29,6.96-.61,10.39Z"/>
    <path class="cls-4" d="M157.51,432.79c1.41,8.13,2.5,16.3,3.51,24.49-1.72-8.08-2.9-16.24-3.51-24.49Z"/>
    <path class="cls-4" d="M321.46,17.75c.08-.22.09-.5.23-.65,2.91-2.92,5.01-6.56,8.12-9.3.73-.64.92-1.65,1.78-2.23.47.69.34,1.26-.17,1.8-3.08,3.31-5.88,6.87-9.13,10.02-.23.22-.5.38-.85.34,0,0,.01.01.01.01Z"/>
    <path class="cls-4" d="M280.18,75.63c.37-1.32.92-1.8,1.78-2.46-.12,1.22-.73,1.64-1.78,2.46Z"/>
    <path class="cls-4" d="M284.05,70.99c-.25.85-.79,1.46-1.84,2,.29-1.18.81-1.81,1.74-2.11,0,0,.1.11.1.11Z"/>
    <path class="cls-4" d="M278.76,77.21c-.04-.48.45-.94.03-1.43,0,0-.01.01-.01.01.37.36.86-.13,1.28.15-.18.72-.46,1.28-1.3,1.26h0Z"/>
    <path class="cls-4" d="M317.58,22.06c-.24-.3-.02-.57.06-.85.43-.26.6-.91,1.43-.88-.24.92-.79,1.38-1.49,1.73Z"/>
    <path class="cls-4" d="M278.75,77.2c-.03.22.01.49-.1.66-.14.2-.23.67-.64.37-.05-.03.1-.42.22-.6.13-.18.35-.29.52-.43,0,0,0,0,0,0Z"/>
    <path class="cls-4" d="M274.51,31.24c-.08.2-.16.39-.24.59-.08-.07-.22-.14-.23-.22-.01-.24.12-.41.35-.49l.12.12Z"/>
    <path class="cls-4" d="M320.99,18.23c.01-.31.17-.47.48-.48,0,0-.01-.01-.01-.01.01.33-.14.5-.48.48h.01Z"/>
    <path class="cls-4" d="M320.97,18.21c.01.34-.14.5-.49.47,0,0,.03.03.03.03.03-.29.17-.46.47-.48,0,0-.01-.01-.01-.01Z"/>
    <polygon class="cls-4" points="143.64 354.16 143.79 354.09 143.77 354.27 143.64 354.16"/>
    <path class="cls-4" d="M274.39,31.12c.07-.18.12-.52.36-.32.22.18-.02.36-.24.44,0,0-.12-.12-.12-.12Z"/>
    <path class="cls-4" d="M317.03,22.5c.12-.25.18-.59.59-.48-.07.32-.28.45-.59.48Z"/>
    <path class="cls-4" d="M320,19.16c-.03.13-.06.25-.09.38-.41-.27.01-.26.12-.35,0,0-.03-.03-.03-.03Z"/>
    <path class="cls-4" d="M320.03,19.19c.03-.29.19-.46.48-.48,0,0-.03-.03-.03-.03.02.34-.12.52-.48.48,0,0,.03.03.03.03Z"/>
    <path class="cls-4" d="M149.78,85.28c.6,2.11-.08,4.1-.67,6.06-1.18,3.95-3.25,7.44-5.74,10.7-4.36,5.72-8.6,11.52-12.6,17.49-.34-.33-.71-.63-1.02-.98-4.05-4.59-7.5-9.64-11.29-14.43-1.56-1.96-2.74-4.25-4.79-5.81,0,0,.01.02.01.02-.11-.99-.64-1.65-1.59-1.97-1.18-2.35-2.69-4.54-3.58-7.04,7.8-2.84,15.72-5.18,24-6.3,4.91-.66,9.67-.43,14.46.63,1.17.26,2.02.83,2.81,1.62Z"/>
    <path class="cls-3" d="M149.78,85.28c-.79-.8-1.64-1.37-2.81-1.62-4.79-1.05-9.55-1.29-14.46-.63-8.28,1.12-16.19,3.46-24,6.3-.65-.8-.51-1.47.37-1.97.55-.31,1.14-.57,1.73-.81,7.95-3.2,16.09-5.71,24.63-6.71,3.34-.39,6.7-.46,10,.42,3.25.86,4.18,1.92,4.54,5.01Z"/>
    <path class="cls-3" d="M113.68,98.32c2.05,1.56,3.24,3.84,4.79,5.81,3.8,4.78,7.25,9.84,11.29,14.43.31.35.68.65,1.02.98-.61,1.02-1.22,2.03-1.94,3.23-1.58-2.39-3.06-4.57-4.47-6.77-3.27-5.1-6.54-10.2-9.77-15.33-.44-.7-1.19-1.34-.92-2.34Z"/>
    <path class="cls-3" d="M112.1,96.36c.95.31,1.48.97,1.59,1.97-1.08-.21-1.12-1.27-1.59-1.97Z"/>
    <path class="cls-3" d="M150.15,165.99c-.79.12-1.12-.53-1.6-.94.77-.1,1.21.38,1.6.94Z"/>
    <path class="cls-3" d="M151.13,166.9c-.7.08-1.04-.23-1.03-.93.49.15.93.36,1.03.93Z"/>
    <path class="cls-1" d="M186.42,160.11c-.08.12-.13.29-.24.36-.23.14-.6.4-.72.32-.32-.22-.04-.52.1-.76.11-.19.26-.35.39-.53.16.2.31.4.47.61Z"/>
  </g>
</svg>